<?xml version="1.0" encoding="iso-8859-1"?>
<!-- Generator: Adobe Illustrator 19.0.0, SVG Export Plug-In . SVG Version: 6.00 Build 0)  -->
<svg version="1.1" id="Layer_1" xmlns="http://www.w3.org/2000/svg" xmlns:xlink="http://www.w3.org/1999/xlink" x="0px" y="0px"
	 viewBox="0 0 488.005 488.005" style="enable-background:new 0 0 488.005 488.005;" xml:space="preserve" fill='currentColor'>
<g transform="translate(0 -540.36)">
	<g>
		<g>
			<path d="M117.852,833.163c-3.9-3.9-10.2-3.9-14.1,0l-55.3,55.3c-3.9,3.9-3.9,10.2,0,14.1c2,1.9,4.5,2.9,7.1,2.9
				c2.5,0,5.1-1,7-2.9l55.3-55.3C121.752,843.363,121.752,837.063,117.852,833.163z"/>
			<path d="M485.352,543.662L485.352,543.662c-1.9-2-4.5-3.2-7.3-3.2h-166.7c-2.7,0-5.4,1.1-7.3,3.1l-102.9,108.4
				c-0.4-0.1-0.8-0.1-1.3-0.1h-100.7c-2.8,0-5.6,1.2-7.5,3.3l-89.1,99.8c-2.6,2.9-3.3,7.1-1.7,10.7c1.6,3.6,5.2,5.9,9.1,5.9h96.4
				l138.8,149.9v96.8c0,4,2.4,7.7,6.2,9.2c1.2,0.5,2.5,0.8,3.8,0.8c2.6,0,5.2-1,7.1-2.9l100.7-100.7c1.9-1.9,2.9-4.4,2.9-7.1v-96.2
				l108.5-108c1.7-1.7,2.8-4,2.9-6.4l10.7-156C488.252,548.362,487.252,545.662,485.352,543.662z M32.352,751.662l71.3-79.8h78.6
				l-75.8,79.8H32.352z M124.552,761.862l191.1-201.4h137l-110,101c-21-14.6-51-12.7-69.5,5.9c-19.1,19.1-21.4,47.8-6.8,69.2
				l-85.5,86.1L124.552,761.862z M335.552,730.562c-13.1,13.1-35.2,13.1-48.3,0c-14-14-14-35.1,0-49.1c13.1-13.1,35.2-13.1,48.3,0
				C349.552,695.462,349.552,716.562,335.552,730.562z M345.952,913.562L345.952,913.562l-80.7,80.7v-72.4l80.7-80.4V913.562z
				 M457.752,701.962l-202.3,201.4l0,0l-61.1-66.1l86-86.5c9.2,6.3,20.1,9.5,31,9.5c13.9,0,27.9-5.2,38.3-15.6
				c19.1-19.1,21.4-47.6,7-69l109.8-100.7L457.752,701.962z"/>
			<path d="M170.552,899.963l-55.3,55.3c-3.9,3.9-3.9,10.2,0,14.1c2,1.9,4.5,2.9,7.1,2.9c2.6,0,5.1-0.9,7-2.9l55.3-55.3
				c3.9-3.9,3.9-10.2,0-14.1S174.452,896.063,170.552,899.963z"/>
		</g>
	</g>
</g>
<g>
</g>
<g>
</g>
<g>
</g>
<g>
</g>
<g>
</g>
<g>
</g>
<g>
</g>
<g>
</g>
<g>
</g>
<g>
</g>
<g>
</g>
<g>
</g>
<g>
</g>
<g>
</g>
<g>
</g>
</svg>
